<?xml version="1.0" encoding="UTF-8" standalone="no"?>
<svg
   xmlns:dc="http://purl.org/dc/elements/1.1/"
   xmlns:cc="http://creativecommons.org/ns#"
   xmlns:rdf="http://www.w3.org/1999/02/22-rdf-syntax-ns#"
   xmlns:svg="http://www.w3.org/2000/svg"
   xmlns="http://www.w3.org/2000/svg"
   xmlns:sodipodi="http://sodipodi.sourceforge.net/DTD/sodipodi-0.dtd"
   xmlns:inkscape="http://www.inkscape.org/namespaces/inkscape"
   version="1.1"
   x="0px"
   y="0px"
   width="21.307936"
   height="24.178179"
   viewBox="0 0 21.307936 24.178179"
   enable-background="new 0 0 30 30"
   xml:space="preserve"
   id="svg4317"
   inkscape:version="0.91 r13725"
   sodipodi:docname="atom.svg"><metadata
     id="metadata4329"><rdf:RDF><cc:Work
         rdf:about=""><dc:format>image/svg+xml</dc:format><dc:type
           rdf:resource="http://purl.org/dc/dcmitype/StillImage" /><dc:title /></cc:Work></rdf:RDF></metadata><defs
     id="defs4327" /><sodipodi:namedview
     pagecolor="#ffffff"
     bordercolor="#666666"
     borderopacity="1"
     objecttolerance="10"
     gridtolerance="10"
     guidetolerance="10"
     inkscape:pageopacity="0"
     inkscape:pageshadow="2"
     inkscape:window-width="1186"
     inkscape:window-height="702"
     id="namedview4325"
     showgrid="false"
     inkscape:zoom="11.313708"
     inkscape:cx="-1.8233618"
     inkscape:cy="12.656847"
     inkscape:window-x="1717"
     inkscape:window-y="204"
     inkscape:window-maximized="0"
     inkscape:current-layer="svg4317"
     fit-margin-top="0"
     fit-margin-left="0"
     fit-margin-right="0"
     fit-margin-bottom="0" /><g
     style="font-style:normal;font-weight:normal;font-size:33.21052551px;line-height:125%;font-family:sans-serif;letter-spacing:0px;word-spacing:0px;fill:#808080;fill-opacity:1;stroke:none;stroke-width:1px;stroke-linecap:butt;stroke-linejoin:miter;stroke-opacity:1"
     id="text6011"
     transform="matrix(0.85066687,0,0,0.85066687,-2.435516,-0.61220416)"><path
       d="m 15.387315,13.706666 q 0.308106,0 0.599995,0.162161 0.291889,0.145945 0.45405,0.437834 0.162161,0.291889 0.162161,0.632427 0,0.324322 -0.162161,0.616211 -0.162161,0.275673 -0.45405,0.437834 -0.291889,0.162161 -0.599995,0.162161 -0.324321,0 -0.616211,-0.162161 -0.291889,-0.162161 -0.45405,-0.437834 -0.162161,-0.291889 -0.162161,-0.616211 0,-0.340538 0.162161,-0.632427 0.162161,-0.291889 0.45405,-0.437834 0.29189,-0.162161 0.616211,-0.162161 z m -3.972939,3.518889 q -1.28107,-0.859452 -2.4324111,-1.783769 -2.0594418,1.670256 -2.8864617,3.032407 -0.5999949,0.956748 -0.5999949,1.572959 0,0.29189 0.1297287,0.518915 0.3729697,0.632427 1.7675523,0.632427 0.1297287,0 0.2756733,0 1.6053917,-0.06487 4.0702354,-0.989181 -0.227025,-1.459447 -0.324322,-2.983758 z m 7.913446,0 q -0.0973,1.524311 -0.324322,2.983758 2.48106,0.924316 4.086452,0.989181 0.145944,0 0.275673,0 1.394583,0 1.767552,-0.632427 0.129729,-0.227025 0.129729,-0.518915 0,-0.632427 -0.599995,-1.572959 -0.843236,-1.362151 -2.902678,-3.032407 -1.151341,0.924317 -2.432411,1.783769 z m 0.04865,-3.567537 q 0.03243,0.632427 0.03243,1.28107 0,0.632427 -0.03243,1.264854 0.924317,-0.616211 1.767553,-1.264854 -0.843236,-0.664859 -1.767553,-1.28107 z m -0.843236,-0.567563 q -0.762155,-0.486482 -1.556743,-0.940532 -0.810804,-0.45405 -1.621608,-0.875668 -0.794588,0.421618 -1.572959,0.875668 -0.810804,0.45405 -1.57296,0.940532 -0.03243,0.908101 -0.03243,1.848633 0,0.924316 0.03243,1.832417 0.74594,0.486482 1.57296,0.940532 0.778371,0.470266 1.605391,0.891884 0.794588,-0.421618 1.589176,-0.891884 0.810804,-0.45405 1.556743,-0.940532 0.04865,-0.908101 0.04865,-1.832417 0,-0.940532 -0.04865,-1.848633 z m 0.45405,-3.4378081 q 0.243241,1.4594471 0.340538,2.9999741 1.28107,0.859452 2.416195,1.783769 2.02701,-1.637824 2.902678,-3.016191 0.616211,-0.956748 0.616211,-1.5891752 0,-0.3081055 -0.129729,-0.5351306 -0.372969,-0.648643 -1.767552,-0.648643 -0.145945,0 -0.324321,0.016216 -1.637824,0.08108 -4.05402,0.9891807 z m -7.118857,-0.7621556 0.01622,-0.032432 q 0.551346,-2.9026778 1.508095,-4.4594212 0.972964,-1.5567434 1.994577,-1.5567434 1.005397,0 1.962146,1.5567434 0.956748,1.5567434 1.508095,4.4594212 l 0,0.032432 q 2.659436,-0.9405324 4.475637,-0.9405324 0.04865,0 0.113512,0 1.881065,0.032432 2.39998,0.9405324 0.194593,0.3243216 0.194593,0.7621556 0,0.7459391 -0.567563,1.7513361 -0.9081,1.637824 -3.113487,3.535105 l 0.01622,0.01622 q 2.237819,1.913497 3.129703,3.518889 0.535131,1.005397 0.535131,1.73512 0,0.437834 -0.194593,0.762156 -0.502699,0.891884 -1.459447,0.924316 -0.956749,0.01622 -1.054045,0.01622 -1.783769,0 -4.443205,-0.940532 l -0.01622,0 q -0.551347,2.854029 -1.491879,4.443205 -0.956749,1.605391 -1.994578,1.605391 -1.054045,0 -2.027009,-1.605391 -0.940533,-1.589176 -1.491879,-4.443205 -2.6270049,0.956748 -4.4107734,0.956748 -0.097296,0 -1.070261,-0.03243 -0.9729646,-0.03243 -1.475663,-0.924316 -0.1783769,-0.324322 -0.1783769,-0.74594 0,-0.729723 0.5351306,-1.751336 Q 6.1441514,16.868801 8.38197,14.939088 6.1765836,13.041807 5.3009154,11.420199 4.7333527,10.398586 4.7333527,9.6364309 q 0,-0.421618 0.1783769,-0.7459396 0.5189144,-0.9081003 2.3837633,-0.9405324 0.064864,0 0.1135125,0 1.8162006,0 4.4594216,0.9405324 z m 6.259405,0.2756733 Q 17.689998,6.5391602 16.944059,5.1283615 16.181903,3.6689146 15.387315,3.6689146 q -0.82702,0 -1.589175,1.4594469 -0.74594,1.4107987 -1.183774,4.0378031 1.378367,0.5189145 2.772949,1.1999894 1.362151,-0.6810749 2.740517,-1.1999894 z m 0.113513,0.7783717 q -0.972965,0.4054017 -1.978362,0.8756677 0.551347,0.29189 1.135126,0.616211 0.53513,0.340538 1.070261,0.66486 -0.08108,-1.102694 -0.227025,-2.1567387 z m -5.740491,0.016216 q -0.145945,1.0378287 -0.227026,2.1405227 0.535131,-0.324322 1.086478,-0.66486 0.567562,-0.324321 1.118909,-0.616211 Q 13.47382,10.349938 12.500856,9.9607523 Z M 11.738698,9.6526469 Q 9.3225025,8.7445466 7.7171109,8.6634662 7.538734,8.6472502 7.3927893,8.6472502 q -1.3945826,0 -1.7513363,0.648643 -0.1459447,0.2432412 -0.1459447,0.5513467 0,0.6324271 0.616211,1.5729591 0.8756681,1.362151 2.8864617,2.999975 1.135125,-0.924317 2.416195,-1.783769 0.0973,-1.524311 0.324322,-2.9837581 z m -0.37297,4.0053711 q -0.924316,0.616211 -1.7513361,1.28107 0.8270201,0.648643 1.7513361,1.264854 -0.01622,-0.632427 -0.01622,-1.264854 0,-0.648643 0.01622,-1.28107 z m 0.9081,4.102667 q 0.08108,1.102694 0.227026,2.156739 0.972964,-0.405402 1.978361,-0.875669 -0.567563,-0.291889 -1.118909,-0.61621 -0.567563,-0.324322 -1.086478,-0.66486 z m 3.989155,1.28107 q 1.005397,0.470267 1.978362,0.875669 0.145944,-1.054045 0.227025,-2.156739 -0.518915,0.340538 -1.070261,0.66486 -0.583779,0.324321 -1.135126,0.61621 z m -0.9081,0.454051 q -1.36215,0.681075 -2.740517,1.216205 0.421618,2.562141 1.167558,4.005371 0.762155,1.475663 1.605391,1.475663 0.82702,0 1.57296,-1.475663 0.745939,-1.44323 1.167557,-4.005371 -1.394582,-0.53513 -2.772949,-1.216205 z"
       id="path6027"
       inkscape:connector-curvature="0"
       style="fill:#808080;fill-opacity:1" /></g></svg>