<?xml version="1.0" encoding="UTF-8" standalone="no"?>
<!-- Created with Inkscape (http://www.inkscape.org/) -->

<svg
   xmlns:dc="http://purl.org/dc/elements/1.1/"
   xmlns:cc="http://creativecommons.org/ns#"
   xmlns:rdf="http://www.w3.org/1999/02/22-rdf-syntax-ns#"
   xmlns:svg="http://www.w3.org/2000/svg"
   xmlns="http://www.w3.org/2000/svg"
   xmlns:sodipodi="http://sodipodi.sourceforge.net/DTD/sodipodi-0.dtd"
   xmlns:inkscape="http://www.inkscape.org/namespaces/inkscape"
   width="50"
   height="50"
   viewBox="0 0 50.000001 50.000001"
   id="svg7216"
   version="1.1"
   inkscape:version="0.91 r13725"
   sodipodi:docname="symbol.svg">
  <defs
     id="defs7218" />
  <sodipodi:namedview
     id="base"
     pagecolor="#ffffff"
     bordercolor="#666666"
     borderopacity="1.0"
     inkscape:pageopacity="0.0"
     inkscape:pageshadow="2"
     inkscape:zoom="4"
     inkscape:cx="67.794335"
     inkscape:cy="-9.5035188"
     inkscape:document-units="px"
     inkscape:current-layer="layer1"
     showgrid="false"
     units="px"
     inkscape:window-width="1920"
     inkscape:window-height="1029"
     inkscape:window-x="1600"
     inkscape:window-y="0"
     inkscape:window-maximized="1"
     showguides="true"
     inkscape:guide-bbox="true"
     inkscape:snap-global="false">
    <sodipodi:guide
       position="25,25"
       orientation="1,0"
       id="guide7829"
       inkscape:label=""
       inkscape:color="rgb(0,0,255)" />
    <sodipodi:guide
       position="25,25"
       orientation="0,1"
       id="guide7831"
       inkscape:label=""
       inkscape:color="rgb(0,0,255)" />
  </sodipodi:namedview>
  <metadata
     id="metadata7221">
    <rdf:RDF>
      <cc:Work
         rdf:about="">
        <dc:format>image/svg+xml</dc:format>
        <dc:type
           rdf:resource="http://purl.org/dc/dcmitype/StillImage" />
        <dc:title></dc:title>
      </cc:Work>
    </rdf:RDF>
  </metadata>
  <g
     inkscape:label="Layer 1"
     inkscape:groupmode="layer"
     id="layer1"
     transform="translate(0,-1002.3622)">
    <path
       style="color:#000000;font-style:normal;font-variant:normal;font-weight:normal;font-stretch:normal;font-size:medium;line-height:normal;font-family:sans-serif;text-indent:0;text-align:start;text-decoration:none;text-decoration-line:none;text-decoration-style:solid;text-decoration-color:#000000;letter-spacing:normal;word-spacing:normal;text-transform:none;direction:ltr;block-progression:tb;writing-mode:lr-tb;baseline-shift:baseline;text-anchor:start;white-space:normal;clip-rule:nonzero;display:inline;overflow:visible;visibility:visible;opacity:1;isolation:auto;mix-blend-mode:normal;color-interpolation:sRGB;color-interpolation-filters:linearRGB;solid-color:#000000;solid-opacity:1;fill:#eab567;fill-opacity:1;fill-rule:nonzero;stroke:none;stroke-width:2.5;stroke-linecap:round;stroke-linejoin:miter;stroke-miterlimit:4;stroke-dasharray:none;stroke-dashoffset:0;stroke-opacity:1;color-rendering:auto;image-rendering:auto;shape-rendering:auto;text-rendering:auto;enable-background:accumulate"
       d="m 23.455541,1008.8952 a 0.98363409,0.98363409 0 0 0 -0.969704,0.9973 l 0,9.4604 c -0.229352,0.072 -0.454171,0.1564 -0.674644,0.2474 l 0,-7.5332 a 0.98363409,0.98363409 0 0 0 -0.998904,-0.9974 0.98363409,0.98363409 0 0 0 -0.968167,0.9974 l 0,8.6858 c -0.537404,0.4204 -1.021679,0.9033 -1.443032,1.44 l -8.6843133,0 a 0.98363409,0.98363409 0 1 0 0,1.967 l 7.5271223,0 c -0.09178,0.2213 -0.176086,0.446 -0.248958,0.6762 l -9.4527004,0 a 0.98363409,0.98363409 0 1 0 0,1.9671 l 9.0915594,0 c -0.0122,0.1845 -0.02766,0.3688 -0.02766,0.5563 2e-6,0.1811 0.01627,0.358 0.02766,0.5363 l -9.0915594,0 a 0.98363409,0.98363409 0 1 0 0,1.9671 l 9.4465534,0 c 0.07235,0.2305 0.157674,0.4546 0.248958,0.6762 l -7.5209753,0 a 0.98363409,0.98363409 0 1 0 0,1.9671 l 8.6704823,0 c 0.424769,0.5442 0.913176,1.0344 1.456863,1.4599 l 0,8.6659 a 0.98363409,0.98363409 0 1 0 1.967071,0 l 0,-7.5133 c 0.220473,0.091 0.445294,0.1751 0.674644,0.2474 l 0,9.4404 a 0.98363409,0.98363409 0 1 0 1.967072,0 l 0,-9.0823 c 0.181804,0.012 0.362374,0.029 0.547091,0.029 0.184717,0 0.365287,-0.017 0.547091,-0.029 l 0,9.0823 a 0.98363409,0.98363409 0 1 0 1.967072,0 l 0,-9.4404 c 0.22935,-0.072 0.454171,-0.1563 0.674644,-0.2474 l 0,7.5133 a 0.98363409,0.98363409 0 1 0 1.967071,0 l 0,-8.6659 c 0.543687,-0.4255 1.032094,-0.9157 1.456863,-1.4599 l 8.670482,0 a 0.98363409,0.98363409 0 1 0 0,-1.9671 l -7.520975,0 c 0.09128,-0.2216 0.176608,-0.4457 0.248958,-0.6762 l 9.446553,0 a 0.98363409,0.98363409 0 1 0 0,-1.9671 l -9.091559,0 c 0.01139,-0.1783 0.02766,-0.3552 0.02766,-0.5363 10e-7,-0.1875 -0.01546,-0.3718 -0.02766,-0.5563 l 9.091559,0 a 0.98363409,0.98363409 0 1 0 0,-1.9671 l -9.4527,0 c -0.07287,-0.2302 -0.157178,-0.4549 -0.248958,-0.6762 l 7.527122,0 a 0.98363409,0.98363409 0 1 0 0,-1.967 l -8.684313,0 c -0.421353,-0.5367 -0.905628,-1.0196 -1.443032,-1.44 l 0,-8.6858 a 0.98363409,0.98363409 0 0 0 -0.997366,-0.9974 0.98363409,0.98363409 0 0 0 -0.969705,0.9974 l 0,7.5332 c -0.220473,-0.091 -0.445292,-0.1751 -0.674644,-0.2474 l 0,-9.4604 a 0.98363409,0.98363409 0 0 0 -0.998903,-0.9973 0.98363409,0.98363409 0 0 0 -0.968169,0.9973 l 0,9.1023 c -0.181796,-0.012 -0.362383,-0.028 -0.547091,-0.028 -0.184708,0 -0.365295,0.016 -0.547091,0.028 l 0,-9.1023 a 0.98363409,0.98363409 0 0 0 -0.997368,-0.9973 z M 25,1020.9342 c 3.560772,0 6.426806,2.8646 6.426792,6.4253 -2.4e-5,3.5608 -2.866047,6.4268 -6.426792,6.4268 -3.560745,0 -6.426768,-2.866 -6.426792,-6.4268 -1.4e-5,-3.5607 2.86602,-6.4253 6.426792,-6.4253 z"
       id="path7827"
       inkscape:connector-curvature="0" />
  </g>
</svg>
